<svg width="407" height="132" viewBox="0 0 407 132" fill="none" xmlns="http://www.w3.org/2000/svg">
<path d="M338.666 15.617L387.934 25.4705L388.491 24.5409L346.289 0.929688L338.666 15.617ZM363.021 132C335.692 132 314.684 110.991 314.684 84.7774C314.684 58.3775 336.064 37.1832 362.277 37.1832C378.452 37.1832 393.511 45.3634 402.435 59.3071H366.368C391.28 63.5831 406.897 76.969 406.897 97.0478C406.897 114.71 391.28 132 363.021 132ZM353.168 40.5296C342.757 40.5296 336.993 46.8507 335.692 57.8197H374.176C371.201 48.1521 362.835 40.5296 353.168 40.5296ZM335.506 59.3071C332.903 89.2394 351.68 121.217 378.452 121.217C393.697 121.217 404.666 108.203 404.666 94.0732C404.666 72.8789 379.382 59.3071 352.424 59.3071H335.506Z" fill="#010100"/>
<path d="M285.109 129.566L309.091 98.5186L307.418 131.054H236.027L281.018 39.5835H263.543L239.746 70.6313L241.233 38.0962H306.117L261.312 129.566H285.109Z" fill="#010100"/>
<path d="M138.286 99.4649C138.286 80.8734 153.345 67.1157 171.379 67.1157C183.091 67.1157 186.81 70.6481 190.528 74.1805C187.181 69.3467 178.443 59.1213 164.314 59.1213H150.371C157.435 46.2932 174.725 37.1833 191.457 37.1833C208.19 37.1833 223.806 44.434 223.806 62.6537V119.73L233.846 131.071H199.638V108.389C193.874 124.749 181.976 131.628 169.334 131.628C151.858 131.628 138.286 117.499 138.286 99.4649ZM174.353 59.3073C179.745 61.3523 193.874 68.4171 199.638 90.541V53.5439C199.638 44.0622 196.663 39.4143 190.9 39.4143C181.79 39.4143 176.584 49.6397 174.353 59.3073ZM160.596 89.6114C160.596 104.299 171.379 120.659 183.835 120.659C194.432 120.659 199.266 109.876 199.266 99.6508C199.266 86.265 189.598 68.9748 176.027 68.9748C166.173 68.9748 160.596 79.0143 160.596 89.6114Z" fill="#010100"/>
<path d="M0 65.9999C0 29.5605 29.9321 0 66.1853 0C102.438 0 132.371 29.5605 132.371 65.9999C132.371 102.439 102.438 132 66.1853 132C29.9321 132 0 102.439 0 65.9999ZM16.3604 43.5042C16.3604 79.3858 51.3122 123.82 85.8921 123.82C101.137 123.82 116.01 112.479 116.01 88.4956C116.01 52.614 81.0584 8.18027 46.4784 8.18027C31.2335 8.18027 16.3604 19.5211 16.3604 43.5042Z" fill="#010100"/>
</svg>
